<svg width="30" height="30" viewBox="0 0 30 30" fill="none" xmlns="http://www.w3.org/2000/svg">
<path d="M22.0082 1.70916C19.8548 0.592873 17.4563 0.00630123 15.0196 2.39108e-07C6.726 -0.00144827 0.00148005 6.57853 2.68562e-07 14.6968C-0.000739624 18.5288 1.52736 22.2096 4.25853 24.9548L3.6311 29.3235C3.57635 29.639 3.79314 29.9382 4.11543 29.9918C4.26423 30.0166 4.41701 29.9848 4.54265 29.9029L7.95207 27.6896C15.2813 31.489 24.3694 28.7531 28.2509 21.5788C32.1324 14.4045 29.3374 5.50852 22.0082 1.70916ZM24.8628 24.2128C22.2648 26.7917 18.7197 28.2442 15.0196 28.2458C12.6375 28.249 10.2949 27.6504 8.21851 26.5076C8.03539 26.4041 7.80972 26.4041 7.62659 26.5076L4.95706 28.2053L5.47203 24.839C5.49755 24.6575 5.43392 24.4748 5.30037 24.3465C-0.139321 19.0956 -0.200437 10.5223 5.16386 5.1976C10.5282 -0.127106 19.2866 -0.18693 24.7263 5.06397C30.166 10.3149 30.2271 18.8881 24.8628 24.2128Z" fill="#AAAAAA"/>
<path d="M16.4995 9.2616C16.5183 9.94889 16.0203 10.5044 15.2122 10.5044C14.498 10.5044 14 9.94889 14 9.2616C14 8.54607 14.5262 8 15.2591 8C16.0203 8 16.4995 8.55548 16.4995 9.2616Z" fill="#AAAAAA"/>
<path d="M14.2537 22.0001V12.5569L16.2646 12.6228V22.0001H14.2537Z" fill="#AAAAAA"/>
</svg>
