<svg width="14" height="14" viewBox="0 0 14 14" fill="none" xmlns="http://www.w3.org/2000/svg">
<path d="M12.425 8.75H12.25H9.74167C9.275 8.75 8.80833 8.75 8.45833 9.1C8.28333 9.275 8.16667 9.56667 8.16667 9.91667C6.06667 9.625 4.375 7.99167 4.14167 5.89167C4.49167 5.89167 4.725 5.775 4.95833 5.6C5.25 5.19167 5.25 4.725 5.25 4.25833V4.08333V1.575C5.25 1.10833 5.25 0.641667 4.9 0.291667C4.725 0.116667 4.43333 0 4.08333 0H1.75C0.758333 0 0 0.758333 0 1.75V2.33333V4.08333C0 9.56667 4.43333 14 9.91667 14H11.6667H12.25C13.2417 14 14 13.2417 14 12.25V9.91667C14 9.56667 13.8833 9.275 13.7083 9.1C13.3583 8.75 12.8917 8.75 12.425 8.75ZM12.8333 12.25C12.8333 12.6 12.6 12.8333 12.25 12.8333H11.6667H9.91667C5.075 12.8333 1.16667 8.925 1.16667 4.08333V2.33333V1.75C1.16667 1.4 1.4 1.16667 1.75 1.16667H4.08333C4.08333 1.28333 4.08333 1.45833 4.08333 1.575V1.75V4.25833C4.08333 4.375 4.08333 4.55 4.08333 4.66667H3.5H2.91667V5.25C2.91667 8.45833 5.54167 11.0833 8.75 11.0833H9.33333V10.5V9.91667C9.45 9.91667 9.625 9.91667 9.74167 9.91667H9.91667H12.425C12.5417 9.91667 12.7167 9.91667 12.8333 9.91667V12.25Z" fill="#54B049"/>
</svg>
