<svg width="12" height="12" viewBox="0 0 12 12" fill="none" xmlns="http://www.w3.org/2000/svg">
<path d="M6.00001 0.444458C5.27045 0.444458 4.54803 0.588157 3.87399 0.86735C3.19996 1.14654 2.58752 1.55576 2.07164 2.07164C1.02977 3.11351 0.444458 4.52659 0.444458 6.00001C0.444458 7.47344 1.02977 8.88652 2.07164 9.92838C2.58752 10.4443 3.19996 10.8535 3.87399 11.1327C4.54803 11.4119 5.27045 11.5556 6.00001 11.5556C7.47344 11.5556 8.88652 10.9703 9.92838 9.92838C10.9703 8.88652 11.5556 7.47344 11.5556 6.00001C11.5556 5.27045 11.4119 4.54803 11.1327 3.87399C10.8535 3.19996 10.4443 2.58752 9.92838 2.07164C9.4125 1.55576 8.80006 1.14654 8.12603 0.86735C7.452 0.588157 6.72958 0.444458 6.00001 0.444458Z" fill="#979797"/>
</svg>
